# Blender v2.74 (sub 0) OBJ File: 'level.blend'
# www.blender.org
mtllib level_navmesh.mtl
o Plane.001
v 3.884968 0.000000 -9.669281
v -10.715033 0.000000 5.330718
v -10.715032 0.000000 9.930719
v -5.715034 0.000000 5.330719
v -5.715033 0.000000 -7.169282
v 3.884967 0.000000 9.930719
v -0.715032 0.000000 -9.669281
v 8.884968 4.000000 9.930718
v -0.715032 0.000000 -7.169281
v -10.715033 4.000000 -9.669282
v -6.115033 4.000000 0.130719
v -6.115033 4.000000 4.930719
v -5.915033 4.000000 2.430719
v -10.715033 4.000000 4.930718
v -5.915032 4.000000 -7.569282
v -5.915032 4.000000 -9.669281
v 4.284967 4.000000 2.630719
v 4.284967 4.000000 -9.669281
v 8.884969 4.000000 -9.669281
v 4.284967 4.000000 0.130719
v 4.084967 4.000000 2.430719
v 4.084967 4.000000 0.330719
v 4.284966 4.000000 9.930719
v -6.115033 4.000000 2.630719
v -5.915033 4.000000 0.330719
v -6.115032 4.000000 -7.369282
v -6.115032 4.000000 -9.669281
v -5.758972 3.874919 -7.569282
v -5.758972 3.874919 -9.669281
v -1.071319 0.124797 -9.669281
v -1.071319 0.124798 -7.569281
v -5.715034 4.000000 2.430719
v -5.715033 4.000000 0.330719
v 3.884967 4.000000 2.430719
v 3.884967 4.000000 0.330719
v -0.915032 0.000000 -7.569281
v -0.915032 0.000000 -9.669281
vt 0.546875 0.083333
vt 0.618750 0.166667
vt 0.546875 0.166667
vt 0.618750 0.583333
vt 0.618750 0.660000
vt 0.546875 0.660000
vt 0.312500 0.506667
vt 0.312500 0.500000
vt 0.390625 0.500000
vt 0.006250 0.583333
vt 0.078125 0.583333
vt 0.006250 0.660000
vt 0.156250 0.583333
vt 0.078125 0.660000
vt 0.390625 0.173333
vt 0.475000 0.173333
vt 0.390625 0.250000
vt 0.312500 0.583333
vt 0.390625 0.583333
vt 0.312500 0.660000
vt 0.318750 0.493333
vt 0.384375 0.493333
vt 0.390625 0.166667
vt 0.384375 0.173333
vt 0.312500 0.166667
vt 0.000000 0.333333
vt 0.006250 0.328124
vt 0.078125 0.333333
vt 0.006250 0.340000
vt 0.071875 0.171869
vt 0.006250 0.171869
vt 0.078125 0.166667
vt 0.234375 0.416667
vt 0.312500 0.416667
vt 0.234375 0.493333
vt 0.000000 0.166667
vt 0.006250 0.160000
vt 0.390625 0.416667
vt 0.468750 0.416667
vt 0.390625 0.493333
vt 0.084375 0.340000
vt 0.390625 0.506667
vt 0.390625 0.160000
vt 0.078125 0.160000
vt 0.071875 0.328124
vt 0.318750 0.173333
vt 0.312500 0.160000
vt 0.468750 0.250000
vt 0.546875 0.250000
vt 0.390625 0.083333
vt 0.462500 0.160000
vt 0.078125 0.083333
vt 0.156250 0.083333
vt 0.312500 0.083333
vt 0.234375 0.160000
vt 0.071875 0.250000
vt 0.006250 0.250000
vt 0.234375 0.173333
vt 0.234375 0.250000
vt 0.156250 0.250000
vt 0.384375 0.333333
vt 0.318750 0.333333
vn 0.000000 1.000000 0.000000
vn 0.624000 0.781400 -0.000000
vn 0.625400 0.780300 0.000000
vn 0.624700 0.780900 0.000000
vn -0.000000 -1.000000 0.000000
g Plane.001_Plane.001_Material.001
usemtl Material.001
s off
f 2/1/1 3/2/1 4/3/1
f 23/4/1 8/5/1 19/6/1
f 20/7/1 22/8/1 21/9/1
f 18/10/1 20/11/1 19/12/1
f 20/11/1 17/13/1 19/14/1
f 5/15/1 4/16/1 9/17/1
f 17/18/1 23/19/1 19/20/1
f 35/21/1 34/22/1 22/8/1
f 13/23/1 32/24/1 25/25/1
f 37/26/2 30/27/2 36/28/2
f 7/29/1 37/26/1 36/28/1
f 28/30/3 29/31/3 15/32/3
f 7/33/1 9/34/1 1/35/1
f 16/36/1 27/37/1 15/32/1
f 9/38/1 6/39/1 1/40/1
f 9/41/1 7/29/1 36/28/1
f 17/42/1 20/7/1 21/9/1
f 24/43/1 13/23/1 25/25/1
f 27/37/1 26/44/1 15/32/1
f 29/31/3 16/36/3 15/32/3
f 30/27/2 31/45/2 36/28/2
f 32/24/1 33/46/1 25/25/1
f 34/22/1 21/9/1 22/8/1
f 11/47/1 24/43/1 25/25/1
f 4/16/1 6/48/1 9/17/1
f 4/3/1 3/2/1 6/49/1
f 14/50/1 12/51/1 24/43/1
f 10/52/1 14/53/1 26/44/1
f 14/54/1 11/47/1 26/55/1
f 10/52/1 26/44/1 27/37/1
f 14/50/1 24/43/1 11/47/1
f 29/31/4 28/56/4 30/57/4
f 30/57/4 28/56/4 31/45/4
f 5/58/5 9/59/5 4/60/5
f 33/46/1 32/61/1 35/62/1
f 34/22/1 35/62/1 32/61/1
